%TF.GenerationSoftware,KiCad,Pcbnew,9.0.7*%
%TF.CreationDate,2026-06-22T19:13:27+05:30*%
%TF.ProjectId,keyboard_kicad,6b657962-6f61-4726-945f-6b696361642e,rev?*%
%TF.SameCoordinates,Original*%
%TF.FileFunction,Plated,1,2,PTH,Drill*%
%TF.FilePolarity,Positive*%
%FSLAX46Y46*%
G04 Gerber Fmt 4.6, Leading zero omitted, Abs format (unit mm)*
G04 Created by KiCad (PCBNEW 9.0.7) date 2026-06-22 19:13:27*
%MOMM*%
%LPD*%
G01*
G04 APERTURE LIST*
%TA.AperFunction,ViaDrill*%
%ADD10C,0.300000*%
%TD*%
%TA.AperFunction,ComponentDrill*%
%ADD11C,0.800000*%
%TD*%
%TA.AperFunction,ComponentDrill*%
%ADD12C,1.020000*%
%TD*%
%TA.AperFunction,ComponentDrill*%
%ADD13C,1.500000*%
%TD*%
G04 APERTURE END LIST*
D10*
X117662522Y-180705352D03*
X138822522Y-175295352D03*
X158282522Y-175915352D03*
X176752522Y-176775352D03*
X198602522Y-178185352D03*
X210884360Y-215910352D03*
X212052522Y-177905352D03*
X230302522Y-178505352D03*
X257162522Y-213825352D03*
X266322522Y-213875352D03*
X286852522Y-216085352D03*
X308672522Y-173855352D03*
X337122522Y-160715352D03*
X350412522Y-163075352D03*
X364682522Y-162415352D03*
X368472522Y-161805352D03*
X369402522Y-162935352D03*
X376262522Y-167645352D03*
X379676048Y-163785342D03*
X383032522Y-162475352D03*
X384822522Y-161525352D03*
X387132522Y-163845352D03*
X401792522Y-156955352D03*
X401892522Y-154115352D03*
X401902522Y-159355352D03*
X401932522Y-161395352D03*
X402472522Y-174405352D03*
X402702522Y-163125352D03*
X416517257Y-175001206D03*
X417311787Y-175094617D03*
X417542522Y-211305352D03*
X418221051Y-175033881D03*
X418382522Y-211485352D03*
X419161052Y-175013882D03*
X419582522Y-211555352D03*
X420212522Y-174995352D03*
X421302522Y-174995352D03*
X422172522Y-175055352D03*
X428832522Y-156915352D03*
X428832522Y-159495352D03*
X428852522Y-154375352D03*
X431982522Y-159465352D03*
X432032522Y-154365352D03*
X432032522Y-156995352D03*
X433572522Y-163065352D03*
X433592522Y-167695352D03*
D11*
%TO.C,D10*%
X121971860Y-131255352D03*
X121971860Y-135065352D03*
%TO.C,D26*%
X121971860Y-150305352D03*
X121971860Y-154115352D03*
%TO.C,D75*%
X124353110Y-226505352D03*
X124353110Y-230315352D03*
%TO.C,D43*%
X126734360Y-169355352D03*
X126734360Y-173165352D03*
%TO.C,D42*%
X129115610Y-188405352D03*
X129115610Y-192215352D03*
%TO.C,D74*%
X133878110Y-207455352D03*
X133878110Y-211265352D03*
%TO.C,D11*%
X141021860Y-131255352D03*
X141021860Y-135065352D03*
%TO.C,D27*%
X141021860Y-150305352D03*
X141021860Y-154115352D03*
%TO.C,D77*%
X148165610Y-226505352D03*
X148165610Y-230315352D03*
%TO.C,D45*%
X150546860Y-169355352D03*
X150546860Y-173165352D03*
%TO.C,D44*%
X155309360Y-188405352D03*
X155309360Y-192215352D03*
%TO.C,D12*%
X160071860Y-131255352D03*
X160071860Y-135065352D03*
%TO.C,D28*%
X160071860Y-150305352D03*
X160071860Y-154115352D03*
%TO.C,D76*%
X164834360Y-207455352D03*
X164834360Y-211265352D03*
%TO.C,D47*%
X169596860Y-169355352D03*
X169596860Y-173165352D03*
%TO.C,D79*%
X171978110Y-226505352D03*
X171978110Y-230315352D03*
%TO.C,D46*%
X174359360Y-188405352D03*
X174359360Y-192215352D03*
%TO.C,D13*%
X179121860Y-131255352D03*
X179121860Y-135065352D03*
%TO.C,D29*%
X179121860Y-150305352D03*
X179121860Y-154115352D03*
%TO.C,D78*%
X183884360Y-207455352D03*
X183884360Y-211265352D03*
%TO.C,D49*%
X188646860Y-169355352D03*
X188646860Y-173165352D03*
%TO.C,D48*%
X193409360Y-188405352D03*
X193409360Y-192215352D03*
%TO.C,D81*%
X195790610Y-226505352D03*
X195790610Y-230315352D03*
%TO.C,D14*%
X198171860Y-131255352D03*
X198171860Y-135065352D03*
%TO.C,D30*%
X198171860Y-150305352D03*
X198171860Y-154115352D03*
%TO.C,D80*%
X202934360Y-207455352D03*
X202934360Y-211265352D03*
%TO.C,D51*%
X207696860Y-169355352D03*
X207696860Y-173165352D03*
%TO.C,D50*%
X212459360Y-188405352D03*
X212459360Y-192215352D03*
%TO.C,D15*%
X217221860Y-131255352D03*
X217221860Y-135065352D03*
%TO.C,D31*%
X217221860Y-150305352D03*
X217221860Y-154115352D03*
%TO.C,D82*%
X221984360Y-207455352D03*
X221984360Y-211265352D03*
%TO.C,D53*%
X226746860Y-169355352D03*
X226746860Y-173165352D03*
%TO.C,D52*%
X231509360Y-188405352D03*
X231509360Y-192215352D03*
%TO.C,D16*%
X236271860Y-131255352D03*
X236271860Y-135065352D03*
%TO.C,D32*%
X236271860Y-150305352D03*
X236271860Y-154115352D03*
%TO.C,D84*%
X241034360Y-207455352D03*
X241034360Y-211265352D03*
%TO.C,D55*%
X245796860Y-169355352D03*
X245796860Y-173165352D03*
%TO.C,D54*%
X250559360Y-188405352D03*
X250559360Y-192215352D03*
%TO.C,D17*%
X255321860Y-131255352D03*
X255321860Y-135065352D03*
%TO.C,D33*%
X255321860Y-150305352D03*
X255321860Y-154115352D03*
%TO.C,D86*%
X260084360Y-207455352D03*
X260084360Y-211265352D03*
%TO.C,D57*%
X264846860Y-169355352D03*
X264846860Y-173165352D03*
%TO.C,D85*%
X267228110Y-226505352D03*
X267228110Y-230315352D03*
%TO.C,D56*%
X269609360Y-188405352D03*
X269609360Y-192215352D03*
%TO.C,D18*%
X274371860Y-131255352D03*
X274371860Y-135065352D03*
%TO.C,D34*%
X274371860Y-150305352D03*
X274371860Y-154115352D03*
%TO.C,D88*%
X279134360Y-207455352D03*
X279134360Y-211265352D03*
%TO.C,D59*%
X283896860Y-169355352D03*
X283896860Y-173165352D03*
%TO.C,D58*%
X288659360Y-188405352D03*
X288659360Y-192215352D03*
%TO.C,D19*%
X293421860Y-131255352D03*
X293421860Y-135065352D03*
%TO.C,D35*%
X293421860Y-150305352D03*
X293421860Y-154115352D03*
%TO.C,D90*%
X298184360Y-207455352D03*
X298184360Y-211265352D03*
%TO.C,D61*%
X302946860Y-169355352D03*
X302946860Y-173165352D03*
%TO.C,D60*%
X307709360Y-188405352D03*
X307709360Y-192215352D03*
%TO.C,D20*%
X312471860Y-131255352D03*
X312471860Y-135065352D03*
%TO.C,D36*%
X312471860Y-150305352D03*
X312471860Y-154115352D03*
%TO.C,D92*%
X317234360Y-207455352D03*
X317234360Y-211265352D03*
%TO.C,D63*%
X321996860Y-169355352D03*
X321996860Y-173165352D03*
%TO.C,D62*%
X326759360Y-188405352D03*
X326759360Y-192215352D03*
%TO.C,D21*%
X331521860Y-131255352D03*
X331521860Y-135065352D03*
%TO.C,D37*%
X331521860Y-150305352D03*
X331521860Y-154115352D03*
%TO.C,D94*%
X336284360Y-207455352D03*
X336284360Y-211265352D03*
%TO.C,D91*%
X336284360Y-226505352D03*
X336284360Y-230315352D03*
%TO.C,D65*%
X341046860Y-169355352D03*
X341046860Y-173165352D03*
%TO.C,D64*%
X345809360Y-188405352D03*
X345809360Y-192215352D03*
%TO.C,D22*%
X350571860Y-131255352D03*
X350571860Y-135065352D03*
%TO.C,D38*%
X350571860Y-150305352D03*
X350571860Y-154115352D03*
%TO.C,D93*%
X355334360Y-226505352D03*
X355334360Y-230315352D03*
%TO.C,D67*%
X360096860Y-169355352D03*
X360096860Y-173165352D03*
%TO.C,D23*%
X369621860Y-131255352D03*
X369621860Y-135065352D03*
%TO.C,D96*%
X372003110Y-207455352D03*
X372003110Y-211265352D03*
%TO.C,D95*%
X374384360Y-226505352D03*
X374384360Y-230315352D03*
%TO.C,D66*%
X376765610Y-188405352D03*
X376765610Y-192215352D03*
%TO.C,D39*%
X379146860Y-150305352D03*
X379146860Y-154115352D03*
%TO.C,D69*%
X383909384Y-169355352D03*
X383909384Y-173165352D03*
%TO.C,D24*%
X388671860Y-131255352D03*
X388671860Y-135065352D03*
%TO.C,D97*%
X393434360Y-226505352D03*
X393434360Y-230315352D03*
%TO.C,D25*%
X412484360Y-131255352D03*
X412484360Y-135065352D03*
%TO.C,D41*%
X412484360Y-150305352D03*
X412484360Y-154115352D03*
%TO.C,D73*%
X412484360Y-169355352D03*
X412484360Y-173165352D03*
%TO.C,D72*%
X412484360Y-188405352D03*
X412484360Y-192215352D03*
%TO.C,D104*%
X412484360Y-207455352D03*
X412484360Y-211265352D03*
%TO.C,D105*%
X412484360Y-226505352D03*
X412484360Y-230315352D03*
D12*
%TO.C,U1*%
X418039360Y-121365352D03*
X418039360Y-123905352D03*
X418039360Y-126445352D03*
X418039360Y-128985352D03*
X418039360Y-131525352D03*
X418039360Y-134065352D03*
X418039360Y-136605352D03*
X418039360Y-139145352D03*
X418039360Y-141685352D03*
X418039360Y-144225352D03*
X418039360Y-146765352D03*
X418039360Y-149305352D03*
X418039360Y-151845352D03*
X418039360Y-154385352D03*
X418039360Y-156925352D03*
X418039360Y-159465352D03*
X418039360Y-162005352D03*
X418039360Y-164545352D03*
X418039360Y-167085352D03*
X418039360Y-169625352D03*
X424389360Y-169395352D03*
X426929360Y-169395352D03*
X429469360Y-169395352D03*
X435819360Y-121365352D03*
X435819360Y-123905352D03*
X435819360Y-126445352D03*
X435819360Y-128985352D03*
X435819360Y-131525352D03*
X435819360Y-134065352D03*
X435819360Y-136605352D03*
X435819360Y-139145352D03*
X435819360Y-141685352D03*
X435819360Y-144225352D03*
X435819360Y-146765352D03*
X435819360Y-149305352D03*
X435819360Y-151845352D03*
X435819360Y-154385352D03*
X435819360Y-156925352D03*
X435819360Y-159465352D03*
X435819360Y-162005352D03*
X435819360Y-164545352D03*
X435819360Y-167085352D03*
X435819360Y-169625352D03*
D13*
%TO.C,SW1*%
X108636860Y-129495352D03*
%TO.C,SW17*%
X108636860Y-148545352D03*
%TO.C,SW74*%
X111018110Y-224745352D03*
%TO.C,SW32*%
X113399360Y-167595352D03*
%TO.C,SW1*%
X114986860Y-126955352D03*
%TO.C,SW17*%
X114986860Y-146005352D03*
%TO.C,SW47*%
X115780610Y-186645352D03*
%TO.C,SW74*%
X117368110Y-222205352D03*
%TO.C,SW32*%
X119749360Y-165055352D03*
%TO.C,SW61*%
X120523110Y-205695352D03*
%TO.C,SW47*%
X122130610Y-184105352D03*
%TO.C,SW61*%
X126873110Y-203155352D03*
%TO.C,SW2*%
X127686860Y-129495352D03*
%TO.C,SW18*%
X127686860Y-148545352D03*
%TO.C,SW2*%
X134036860Y-126955352D03*
%TO.C,SW18*%
X134036860Y-146005352D03*
%TO.C,SW75*%
X134830610Y-224745352D03*
%TO.C,SW33*%
X137211860Y-167595352D03*
%TO.C,SW75*%
X141180610Y-222205352D03*
%TO.C,SW48*%
X141974360Y-186645352D03*
%TO.C,SW33*%
X143561860Y-165055352D03*
%TO.C,SW3*%
X146736860Y-129495352D03*
%TO.C,SW19*%
X146736860Y-148545352D03*
%TO.C,SW48*%
X148324360Y-184105352D03*
%TO.C,SW62*%
X151499360Y-205695352D03*
%TO.C,SW3*%
X153086860Y-126955352D03*
%TO.C,SW19*%
X153086860Y-146005352D03*
%TO.C,SW34*%
X156261860Y-167595352D03*
%TO.C,SW62*%
X157849360Y-203155352D03*
%TO.C,SW76*%
X158643110Y-224745352D03*
%TO.C,SW49*%
X161024360Y-186645352D03*
%TO.C,SW34*%
X162611860Y-165055352D03*
%TO.C,SW76*%
X164993110Y-222205352D03*
%TO.C,SW4*%
X165786860Y-129495352D03*
%TO.C,SW20*%
X165786860Y-148545352D03*
%TO.C,SW49*%
X167374360Y-184105352D03*
%TO.C,SW63*%
X170549360Y-205695352D03*
%TO.C,SW4*%
X172136860Y-126955352D03*
%TO.C,SW20*%
X172136860Y-146005352D03*
%TO.C,SW35*%
X175311860Y-167595352D03*
%TO.C,SW63*%
X176899360Y-203155352D03*
%TO.C,SW50*%
X180074360Y-186645352D03*
%TO.C,SW35*%
X181661860Y-165055352D03*
%TO.C,SW77*%
X182455610Y-224745352D03*
%TO.C,SW5*%
X184836860Y-129495352D03*
%TO.C,SW21*%
X184836860Y-148545352D03*
%TO.C,SW50*%
X186424360Y-184105352D03*
%TO.C,SW77*%
X188805610Y-222205352D03*
%TO.C,SW64*%
X189599360Y-205695352D03*
%TO.C,SW5*%
X191186860Y-126955352D03*
%TO.C,SW21*%
X191186860Y-146005352D03*
%TO.C,SW36*%
X194361860Y-167595352D03*
%TO.C,SW64*%
X195949360Y-203155352D03*
%TO.C,SW51*%
X199124360Y-186645352D03*
%TO.C,SW36*%
X200711860Y-165055352D03*
%TO.C,SW6*%
X203886860Y-129495352D03*
%TO.C,SW22*%
X203886860Y-148545352D03*
%TO.C,SW51*%
X205474360Y-184105352D03*
%TO.C,SW65*%
X208649360Y-205695352D03*
%TO.C,SW6*%
X210236860Y-126955352D03*
%TO.C,SW22*%
X210236860Y-146005352D03*
%TO.C,SW37*%
X213411860Y-167595352D03*
%TO.C,SW65*%
X214999360Y-203155352D03*
%TO.C,SW52*%
X218174360Y-186645352D03*
%TO.C,SW37*%
X219761860Y-165055352D03*
%TO.C,SW7*%
X222936860Y-129495352D03*
%TO.C,SW23*%
X222936860Y-148545352D03*
%TO.C,SW52*%
X224524360Y-184105352D03*
%TO.C,SW66*%
X227699360Y-205695352D03*
%TO.C,SW7*%
X229286860Y-126955352D03*
%TO.C,SW23*%
X229286860Y-146005352D03*
%TO.C,SW38*%
X232461860Y-167595352D03*
%TO.C,SW66*%
X234049360Y-203155352D03*
%TO.C,SW53*%
X237224360Y-186645352D03*
%TO.C,SW38*%
X238811860Y-165055352D03*
%TO.C,SW8*%
X241986860Y-129495352D03*
%TO.C,SW24*%
X241986860Y-148545352D03*
%TO.C,SW53*%
X243574360Y-184105352D03*
%TO.C,SW67*%
X246749360Y-205695352D03*
%TO.C,SW8*%
X248336860Y-126955352D03*
%TO.C,SW24*%
X248336860Y-146005352D03*
%TO.C,SW39*%
X251511860Y-167595352D03*
%TO.C,SW67*%
X253099360Y-203155352D03*
%TO.C,SW78*%
X253893110Y-224745352D03*
%TO.C,SW54*%
X256274360Y-186645352D03*
%TO.C,SW39*%
X257861860Y-165055352D03*
%TO.C,SW78*%
X260243110Y-222205352D03*
%TO.C,SW9*%
X261036860Y-129495352D03*
%TO.C,SW25*%
X261036860Y-148545352D03*
%TO.C,SW54*%
X262624360Y-184105352D03*
%TO.C,SW68*%
X265799360Y-205695352D03*
%TO.C,SW9*%
X267386860Y-126955352D03*
%TO.C,SW25*%
X267386860Y-146005352D03*
%TO.C,SW40*%
X270561860Y-167595352D03*
%TO.C,SW68*%
X272149360Y-203155352D03*
%TO.C,SW55*%
X275324360Y-186645352D03*
%TO.C,SW40*%
X276911860Y-165055352D03*
%TO.C,SW10*%
X280086860Y-129495352D03*
%TO.C,SW26*%
X280086860Y-148545352D03*
%TO.C,SW55*%
X281674360Y-184105352D03*
%TO.C,SW69*%
X284849360Y-205695352D03*
%TO.C,SW10*%
X286436860Y-126955352D03*
%TO.C,SW26*%
X286436860Y-146005352D03*
%TO.C,SW41*%
X289611860Y-167595352D03*
%TO.C,SW69*%
X291199360Y-203155352D03*
%TO.C,SW56*%
X294374360Y-186645352D03*
%TO.C,SW41*%
X295961860Y-165055352D03*
%TO.C,SW11*%
X299136860Y-129495352D03*
%TO.C,SW27*%
X299136860Y-148545352D03*
%TO.C,SW56*%
X300724360Y-184105352D03*
%TO.C,SW70*%
X303899360Y-205695352D03*
%TO.C,SW11*%
X305486860Y-126955352D03*
%TO.C,SW27*%
X305486860Y-146005352D03*
%TO.C,SW42*%
X308661860Y-167595352D03*
%TO.C,SW70*%
X310249360Y-203155352D03*
%TO.C,SW57*%
X313424360Y-186645352D03*
%TO.C,SW42*%
X315011860Y-165055352D03*
%TO.C,SW12*%
X318186860Y-129495352D03*
%TO.C,SW28*%
X318186860Y-148545352D03*
%TO.C,SW57*%
X319774360Y-184105352D03*
%TO.C,SW71*%
X322949360Y-205695352D03*
%TO.C,SW79*%
X322949360Y-224745352D03*
%TO.C,SW12*%
X324536860Y-126955352D03*
%TO.C,SW28*%
X324536860Y-146005352D03*
%TO.C,SW43*%
X327711860Y-167595352D03*
%TO.C,SW71*%
X329299360Y-203155352D03*
%TO.C,SW79*%
X329299360Y-222205352D03*
%TO.C,SW58*%
X332474360Y-186645352D03*
%TO.C,SW43*%
X334061860Y-165055352D03*
%TO.C,SW13*%
X337236860Y-129495352D03*
%TO.C,SW29*%
X337236860Y-148545352D03*
%TO.C,SW58*%
X338824360Y-184105352D03*
%TO.C,SW80*%
X341999360Y-224745352D03*
%TO.C,SW13*%
X343586860Y-126955352D03*
%TO.C,SW29*%
X343586860Y-146005352D03*
%TO.C,SW44*%
X346761860Y-167595352D03*
%TO.C,SW80*%
X348349360Y-222205352D03*
%TO.C,SW44*%
X353111860Y-165055352D03*
%TO.C,SW14*%
X356286860Y-129495352D03*
%TO.C,SW72*%
X358668110Y-205695352D03*
%TO.C,SW81*%
X361049360Y-224745352D03*
%TO.C,SW14*%
X362636860Y-126955352D03*
%TO.C,SW59*%
X363410610Y-186645352D03*
%TO.C,SW72*%
X365018110Y-203155352D03*
%TO.C,SW30*%
X365811860Y-148545352D03*
%TO.C,SW81*%
X367399360Y-222205352D03*
%TO.C,SW59*%
X369760610Y-184105352D03*
%TO.C,SW45*%
X370574360Y-167595352D03*
%TO.C,SW30*%
X372161860Y-146005352D03*
%TO.C,SW15*%
X375336860Y-129495352D03*
%TO.C,SW45*%
X376924360Y-165055352D03*
%TO.C,SW82*%
X380099360Y-224745352D03*
%TO.C,SW15*%
X381686860Y-126955352D03*
%TO.C,SW82*%
X386449360Y-222205352D03*
%TO.C,SW16*%
X399149360Y-129495352D03*
%TO.C,SW31*%
X399149360Y-148545352D03*
%TO.C,SW46*%
X399149360Y-167595352D03*
%TO.C,SW60*%
X399149360Y-186645352D03*
%TO.C,SW73*%
X399149360Y-205695352D03*
%TO.C,SW83*%
X399149360Y-224745352D03*
%TO.C,SW16*%
X405499360Y-126955352D03*
%TO.C,SW31*%
X405499360Y-146005352D03*
%TO.C,SW46*%
X405499360Y-165055352D03*
%TO.C,SW60*%
X405499360Y-184105352D03*
%TO.C,SW73*%
X405499360Y-203155352D03*
%TO.C,SW83*%
X405499360Y-222205352D03*
M02*
