%TF.GenerationSoftware,KiCad,Pcbnew,9.0.7*%
%TF.CreationDate,2026-06-22T19:13:34+05:30*%
%TF.ProjectId,keyboard_kicad,6b657962-6f61-4726-945f-6b696361642e,rev?*%
%TF.SameCoordinates,Original*%
%TF.FileFunction,Soldermask,Top*%
%TF.FilePolarity,Negative*%
%FSLAX46Y46*%
G04 Gerber Fmt 4.6, Leading zero omitted, Abs format (unit mm)*
G04 Created by KiCad (PCBNEW 9.0.7) date 2026-06-22 19:13:34*
%MOMM*%
%LPD*%
G01*
G04 APERTURE LIST*
G04 Aperture macros list*
%AMRoundRect*
0 Rectangle with rounded corners*
0 $1 Rounding radius*
0 $2 $3 $4 $5 $6 $7 $8 $9 X,Y pos of 4 corners*
0 Add a 4 corners polygon primitive as box body*
4,1,4,$2,$3,$4,$5,$6,$7,$8,$9,$2,$3,0*
0 Add four circle primitives for the rounded corners*
1,1,$1+$1,$2,$3*
1,1,$1+$1,$4,$5*
1,1,$1+$1,$6,$7*
1,1,$1+$1,$8,$9*
0 Add four rect primitives between the rounded corners*
20,1,$1+$1,$2,$3,$4,$5,0*
20,1,$1+$1,$4,$5,$6,$7,0*
20,1,$1+$1,$6,$7,$8,$9,0*
20,1,$1+$1,$8,$9,$2,$3,0*%
G04 Aperture macros list end*
%ADD10C,1.750000*%
%ADD11C,4.000000*%
%ADD12C,2.500000*%
%ADD13C,3.048000*%
%ADD14C,3.987800*%
%ADD15RoundRect,0.250000X0.550000X-0.550000X0.550000X0.550000X-0.550000X0.550000X-0.550000X-0.550000X0*%
%ADD16C,1.600000*%
%ADD17O,1.700000X1.700000*%
%ADD18R,1.700000X1.700000*%
G04 APERTURE END LIST*
D10*
%TO.C,SW83*%
X397879360Y-227285352D03*
D11*
X402959360Y-227285352D03*
D10*
X408039360Y-227285352D03*
D12*
X399149360Y-224745352D03*
X405499360Y-222205352D03*
%TD*%
D10*
%TO.C,SW71*%
X321679360Y-208235352D03*
D11*
X326759360Y-208235352D03*
D10*
X331839360Y-208235352D03*
D12*
X322949360Y-205695352D03*
X329299360Y-203155352D03*
%TD*%
D10*
%TO.C,SW4*%
X164516860Y-132035352D03*
D11*
X169596860Y-132035352D03*
D10*
X174676860Y-132035352D03*
D12*
X165786860Y-129495352D03*
X172136860Y-126955352D03*
%TD*%
D10*
%TO.C,SW54*%
X255004360Y-189185352D03*
D11*
X260084360Y-189185352D03*
D10*
X265164360Y-189185352D03*
D12*
X256274360Y-186645352D03*
X262624360Y-184105352D03*
%TD*%
D10*
%TO.C,SW41*%
X288341860Y-170135352D03*
D11*
X293421860Y-170135352D03*
D10*
X298501860Y-170135352D03*
D12*
X289611860Y-167595352D03*
X295961860Y-165055352D03*
%TD*%
D10*
%TO.C,SW75*%
X133560610Y-227285352D03*
D11*
X138640610Y-227285352D03*
D10*
X143720610Y-227285352D03*
D12*
X134830610Y-224745352D03*
X141180610Y-222205352D03*
%TD*%
D10*
%TO.C,SW18*%
X126416860Y-151085352D03*
D11*
X131496860Y-151085352D03*
D10*
X136576860Y-151085352D03*
D12*
X127686860Y-148545352D03*
X134036860Y-146005352D03*
%TD*%
D10*
%TO.C,SW38*%
X231191860Y-170135352D03*
D11*
X236271860Y-170135352D03*
D10*
X241351860Y-170135352D03*
D12*
X232461860Y-167595352D03*
X238811860Y-165055352D03*
%TD*%
D10*
%TO.C,SW44*%
X345491860Y-170135352D03*
D11*
X350571860Y-170135352D03*
D10*
X355651860Y-170135352D03*
D12*
X346761860Y-167595352D03*
X353111860Y-165055352D03*
%TD*%
D10*
%TO.C,SW82*%
X378829360Y-227285352D03*
D11*
X383909360Y-227285352D03*
D10*
X388989360Y-227285352D03*
D12*
X380099360Y-224745352D03*
X386449360Y-222205352D03*
%TD*%
D10*
%TO.C,SW46*%
X397879360Y-170135352D03*
D11*
X402959360Y-170135352D03*
D10*
X408039360Y-170135352D03*
D12*
X399149360Y-167595352D03*
X405499360Y-165055352D03*
%TD*%
D10*
%TO.C,SW9*%
X259766860Y-132035352D03*
D11*
X264846860Y-132035352D03*
D10*
X269926860Y-132035352D03*
D12*
X261036860Y-129495352D03*
X267386860Y-126955352D03*
%TD*%
D10*
%TO.C,SW15*%
X374066860Y-132035352D03*
D11*
X379146860Y-132035352D03*
D10*
X384226860Y-132035352D03*
D12*
X375336860Y-129495352D03*
X381686860Y-126955352D03*
%TD*%
D10*
%TO.C,SW81*%
X359779360Y-227285352D03*
D11*
X364859360Y-227285352D03*
D10*
X369939360Y-227285352D03*
D12*
X361049360Y-224745352D03*
X367399360Y-222205352D03*
%TD*%
D10*
%TO.C,SW58*%
X331204360Y-189185352D03*
D11*
X336284360Y-189185352D03*
D10*
X341364360Y-189185352D03*
D12*
X332474360Y-186645352D03*
X338824360Y-184105352D03*
%TD*%
D10*
%TO.C,SW43*%
X326441860Y-170135352D03*
D11*
X331521860Y-170135352D03*
D10*
X336601860Y-170135352D03*
D12*
X327711860Y-167595352D03*
X334061860Y-165055352D03*
%TD*%
D10*
%TO.C,SW6*%
X202616860Y-132035352D03*
D11*
X207696860Y-132035352D03*
D10*
X212776860Y-132035352D03*
D12*
X203886860Y-129495352D03*
X210236860Y-126955352D03*
%TD*%
D10*
%TO.C,SW22*%
X202616860Y-151085352D03*
D11*
X207696860Y-151085352D03*
D10*
X212776860Y-151085352D03*
D12*
X203886860Y-148545352D03*
X210236860Y-146005352D03*
%TD*%
D10*
%TO.C,SW60*%
X397879360Y-189185352D03*
D11*
X402959360Y-189185352D03*
D10*
X408039360Y-189185352D03*
D12*
X399149360Y-186645352D03*
X405499360Y-184105352D03*
%TD*%
D10*
%TO.C,SW37*%
X212141860Y-170135352D03*
D11*
X217221860Y-170135352D03*
D10*
X222301860Y-170135352D03*
D12*
X213411860Y-167595352D03*
X219761860Y-165055352D03*
%TD*%
D10*
%TO.C,SW52*%
X216904360Y-189185352D03*
D11*
X221984360Y-189185352D03*
D10*
X227064360Y-189185352D03*
D12*
X218174360Y-186645352D03*
X224524360Y-184105352D03*
%TD*%
D10*
%TO.C,SW36*%
X193091860Y-170135352D03*
D11*
X198171860Y-170135352D03*
D10*
X203251860Y-170135352D03*
D12*
X194361860Y-167595352D03*
X200711860Y-165055352D03*
%TD*%
D10*
%TO.C,SW50*%
X178804360Y-189185352D03*
D11*
X183884360Y-189185352D03*
D10*
X188964360Y-189185352D03*
D12*
X180074360Y-186645352D03*
X186424360Y-184105352D03*
%TD*%
D10*
%TO.C,SW33*%
X135941860Y-170135352D03*
D11*
X141021860Y-170135352D03*
D10*
X146101860Y-170135352D03*
D12*
X137211860Y-167595352D03*
X143561860Y-165055352D03*
%TD*%
D10*
%TO.C,SW45*%
X369304360Y-170135352D03*
D11*
X374384360Y-170135352D03*
D10*
X379464360Y-170135352D03*
D12*
X370574360Y-167595352D03*
X376924360Y-165055352D03*
%TD*%
D13*
%TO.C,SW59*%
X355287610Y-182200352D03*
D14*
X355287610Y-197410352D03*
D10*
X362140610Y-189185352D03*
D11*
X367220610Y-189185352D03*
D10*
X372300610Y-189185352D03*
D13*
X379163610Y-182200352D03*
D14*
X379163610Y-197410352D03*
D12*
X363410610Y-186645352D03*
X369760610Y-184105352D03*
%TD*%
D10*
%TO.C,SW2*%
X126416860Y-132035352D03*
D11*
X131496860Y-132035352D03*
D10*
X136576860Y-132035352D03*
D12*
X127686860Y-129495352D03*
X134036860Y-126955352D03*
%TD*%
D10*
%TO.C,SW35*%
X174041860Y-170135352D03*
D11*
X179121860Y-170135352D03*
D10*
X184201860Y-170135352D03*
D12*
X175311860Y-167595352D03*
X181661860Y-165055352D03*
%TD*%
D10*
%TO.C,SW74*%
X109748110Y-227285352D03*
D11*
X114828110Y-227285352D03*
D10*
X119908110Y-227285352D03*
D12*
X111018110Y-224745352D03*
X117368110Y-222205352D03*
%TD*%
D10*
%TO.C,SW20*%
X164516860Y-151085352D03*
D11*
X169596860Y-151085352D03*
D10*
X174676860Y-151085352D03*
D12*
X165786860Y-148545352D03*
X172136860Y-146005352D03*
%TD*%
D10*
%TO.C,SW56*%
X293104360Y-189185352D03*
D11*
X298184360Y-189185352D03*
D10*
X303264360Y-189185352D03*
D12*
X294374360Y-186645352D03*
X300724360Y-184105352D03*
%TD*%
D10*
%TO.C,SW7*%
X221666860Y-132035352D03*
D11*
X226746860Y-132035352D03*
D10*
X231826860Y-132035352D03*
D12*
X222936860Y-129495352D03*
X229286860Y-126955352D03*
%TD*%
D10*
%TO.C,SW62*%
X150229360Y-208235352D03*
D11*
X155309360Y-208235352D03*
D10*
X160389360Y-208235352D03*
D12*
X151499360Y-205695352D03*
X157849360Y-203155352D03*
%TD*%
D10*
%TO.C,SW31*%
X397879360Y-151085352D03*
D11*
X402959360Y-151085352D03*
D10*
X408039360Y-151085352D03*
D12*
X399149360Y-148545352D03*
X405499360Y-146005352D03*
%TD*%
D10*
%TO.C,SW14*%
X355016860Y-132035352D03*
D11*
X360096860Y-132035352D03*
D10*
X365176860Y-132035352D03*
D12*
X356286860Y-129495352D03*
X362636860Y-126955352D03*
%TD*%
D10*
%TO.C,SW26*%
X278816860Y-151085352D03*
D11*
X283896860Y-151085352D03*
D10*
X288976860Y-151085352D03*
D12*
X280086860Y-148545352D03*
X286436860Y-146005352D03*
%TD*%
D10*
%TO.C,SW66*%
X226429360Y-208235352D03*
D11*
X231509360Y-208235352D03*
D10*
X236589360Y-208235352D03*
D12*
X227699360Y-205695352D03*
X234049360Y-203155352D03*
%TD*%
D10*
%TO.C,SW10*%
X278816860Y-132035352D03*
D11*
X283896860Y-132035352D03*
D10*
X288976860Y-132035352D03*
D12*
X280086860Y-129495352D03*
X286436860Y-126955352D03*
%TD*%
D10*
%TO.C,SW77*%
X181185610Y-227285352D03*
D11*
X186265610Y-227285352D03*
D10*
X191345610Y-227285352D03*
D12*
X182455610Y-224745352D03*
X188805610Y-222205352D03*
%TD*%
D10*
%TO.C,SW1*%
X107366860Y-132035352D03*
D11*
X112446860Y-132035352D03*
D10*
X117526860Y-132035352D03*
D12*
X108636860Y-129495352D03*
X114986860Y-126955352D03*
%TD*%
D10*
%TO.C,SW39*%
X250241860Y-170135352D03*
D11*
X255321860Y-170135352D03*
D10*
X260401860Y-170135352D03*
D12*
X251511860Y-167595352D03*
X257861860Y-165055352D03*
%TD*%
D10*
%TO.C,SW80*%
X340729360Y-227285352D03*
D11*
X345809360Y-227285352D03*
D10*
X350889360Y-227285352D03*
D12*
X341999360Y-224745352D03*
X348349360Y-222205352D03*
%TD*%
D10*
%TO.C,SW32*%
X112129360Y-170135352D03*
D11*
X117209360Y-170135352D03*
D10*
X122289360Y-170135352D03*
D12*
X113399360Y-167595352D03*
X119749360Y-165055352D03*
%TD*%
D10*
%TO.C,SW70*%
X302629360Y-208235352D03*
D11*
X307709360Y-208235352D03*
D10*
X312789360Y-208235352D03*
D12*
X303899360Y-205695352D03*
X310249360Y-203155352D03*
%TD*%
D10*
%TO.C,SW8*%
X240716860Y-132035352D03*
D11*
X245796860Y-132035352D03*
D10*
X250876860Y-132035352D03*
D12*
X241986860Y-129495352D03*
X248336860Y-126955352D03*
%TD*%
D10*
%TO.C,SW53*%
X235954360Y-189185352D03*
D11*
X241034360Y-189185352D03*
D10*
X246114360Y-189185352D03*
D12*
X237224360Y-186645352D03*
X243574360Y-184105352D03*
%TD*%
D10*
%TO.C,SW73*%
X397879360Y-208235352D03*
D11*
X402959360Y-208235352D03*
D10*
X408039360Y-208235352D03*
D12*
X399149360Y-205695352D03*
X405499360Y-203155352D03*
%TD*%
D10*
%TO.C,SW5*%
X183566860Y-132035352D03*
D11*
X188646860Y-132035352D03*
D10*
X193726860Y-132035352D03*
D12*
X184836860Y-129495352D03*
X191186860Y-126955352D03*
%TD*%
D10*
%TO.C,SW27*%
X297866860Y-151085352D03*
D11*
X302946860Y-151085352D03*
D10*
X308026860Y-151085352D03*
D12*
X299136860Y-148545352D03*
X305486860Y-146005352D03*
%TD*%
D10*
%TO.C,SW42*%
X307391860Y-170135352D03*
D11*
X312471860Y-170135352D03*
D10*
X317551860Y-170135352D03*
D12*
X308661860Y-167595352D03*
X315011860Y-165055352D03*
%TD*%
D10*
%TO.C,SW68*%
X264529360Y-208235352D03*
D11*
X269609360Y-208235352D03*
D10*
X274689360Y-208235352D03*
D12*
X265799360Y-205695352D03*
X272149360Y-203155352D03*
%TD*%
D10*
%TO.C,SW51*%
X197854360Y-189185352D03*
D11*
X202934360Y-189185352D03*
D10*
X208014360Y-189185352D03*
D12*
X199124360Y-186645352D03*
X205474360Y-184105352D03*
%TD*%
D10*
%TO.C,SW3*%
X145466860Y-132035352D03*
D11*
X150546860Y-132035352D03*
D10*
X155626860Y-132035352D03*
D12*
X146736860Y-129495352D03*
X153086860Y-126955352D03*
%TD*%
D10*
%TO.C,SW57*%
X312154360Y-189185352D03*
D11*
X317234360Y-189185352D03*
D10*
X322314360Y-189185352D03*
D12*
X313424360Y-186645352D03*
X319774360Y-184105352D03*
%TD*%
D10*
%TO.C,SW25*%
X259766860Y-151085352D03*
D11*
X264846860Y-151085352D03*
D10*
X269926860Y-151085352D03*
D12*
X261036860Y-148545352D03*
X267386860Y-146005352D03*
%TD*%
D13*
%TO.C,SW30*%
X357683860Y-144100352D03*
D14*
X357683860Y-159310352D03*
D10*
X364541860Y-151085352D03*
D11*
X369621860Y-151085352D03*
D10*
X374701860Y-151085352D03*
D13*
X381559860Y-144100352D03*
D14*
X381559860Y-159310352D03*
D12*
X365811860Y-148545352D03*
X372161860Y-146005352D03*
%TD*%
D10*
%TO.C,SW23*%
X221666860Y-151085352D03*
D11*
X226746860Y-151085352D03*
D10*
X231826860Y-151085352D03*
D12*
X222936860Y-148545352D03*
X229286860Y-146005352D03*
%TD*%
D10*
%TO.C,SW79*%
X321679360Y-227285352D03*
D11*
X326759360Y-227285352D03*
D10*
X331839360Y-227285352D03*
D12*
X322949360Y-224745352D03*
X329299360Y-222205352D03*
%TD*%
D10*
%TO.C,SW29*%
X335966860Y-151085352D03*
D11*
X341046860Y-151085352D03*
D10*
X346126860Y-151085352D03*
D12*
X337236860Y-148545352D03*
X343586860Y-146005352D03*
%TD*%
D10*
%TO.C,SW17*%
X107366860Y-151085352D03*
D11*
X112446860Y-151085352D03*
D10*
X117526860Y-151085352D03*
D12*
X108636860Y-148545352D03*
X114986860Y-146005352D03*
%TD*%
D10*
%TO.C,SW13*%
X335966860Y-132035352D03*
D11*
X341046860Y-132035352D03*
D10*
X346126860Y-132035352D03*
D12*
X337236860Y-129495352D03*
X343586860Y-126955352D03*
%TD*%
D10*
%TO.C,SW24*%
X240716860Y-151085352D03*
D11*
X245796860Y-151085352D03*
D10*
X250876860Y-151085352D03*
D12*
X241986860Y-148545352D03*
X248336860Y-146005352D03*
%TD*%
D10*
%TO.C,SW12*%
X316916860Y-132035352D03*
D11*
X321996860Y-132035352D03*
D10*
X327076860Y-132035352D03*
D12*
X318186860Y-129495352D03*
X324536860Y-126955352D03*
%TD*%
D10*
%TO.C,SW28*%
X316916860Y-151085352D03*
D11*
X321996860Y-151085352D03*
D10*
X327076860Y-151085352D03*
D12*
X318186860Y-148545352D03*
X324536860Y-146005352D03*
%TD*%
D10*
%TO.C,SW65*%
X207379360Y-208235352D03*
D11*
X212459360Y-208235352D03*
D10*
X217539360Y-208235352D03*
D12*
X208649360Y-205695352D03*
X214999360Y-203155352D03*
%TD*%
D13*
%TO.C,SW61*%
X112400110Y-201250352D03*
D14*
X112400110Y-216460352D03*
D10*
X119253110Y-208235352D03*
D11*
X124333110Y-208235352D03*
D10*
X129413110Y-208235352D03*
D13*
X136276110Y-201250352D03*
D14*
X136276110Y-216460352D03*
D12*
X120523110Y-205695352D03*
X126873110Y-203155352D03*
%TD*%
D10*
%TO.C,SW21*%
X183566860Y-151085352D03*
D11*
X188646860Y-151085352D03*
D10*
X193726860Y-151085352D03*
D12*
X184836860Y-148545352D03*
X191186860Y-146005352D03*
%TD*%
D10*
%TO.C,SW69*%
X283579360Y-208235352D03*
D11*
X288659360Y-208235352D03*
D10*
X293739360Y-208235352D03*
D12*
X284849360Y-205695352D03*
X291199360Y-203155352D03*
%TD*%
D10*
%TO.C,SW76*%
X157373110Y-227285352D03*
D11*
X162453110Y-227285352D03*
D10*
X167533110Y-227285352D03*
D12*
X158643110Y-224745352D03*
X164993110Y-222205352D03*
%TD*%
D10*
%TO.C,SW63*%
X169279360Y-208235352D03*
D11*
X174359360Y-208235352D03*
D10*
X179439360Y-208235352D03*
D12*
X170549360Y-205695352D03*
X176899360Y-203155352D03*
%TD*%
D10*
%TO.C,SW67*%
X245479360Y-208235352D03*
D11*
X250559360Y-208235352D03*
D10*
X255639360Y-208235352D03*
D12*
X246749360Y-205695352D03*
X253099360Y-203155352D03*
%TD*%
D10*
%TO.C,SW34*%
X154991860Y-170135352D03*
D11*
X160071860Y-170135352D03*
D10*
X165151860Y-170135352D03*
D12*
X156261860Y-167595352D03*
X162611860Y-165055352D03*
%TD*%
D13*
%TO.C,SW78*%
X207673110Y-220280352D03*
D14*
X207673110Y-235490352D03*
D10*
X252623110Y-227285352D03*
D11*
X257703110Y-227285352D03*
D10*
X262783110Y-227285352D03*
D13*
X307673110Y-220280352D03*
D14*
X307673110Y-235490352D03*
D12*
X253893110Y-224745352D03*
X260243110Y-222205352D03*
%TD*%
D10*
%TO.C,SW16*%
X397879360Y-132035352D03*
D11*
X402959360Y-132035352D03*
D10*
X408039360Y-132035352D03*
D12*
X399149360Y-129495352D03*
X405499360Y-126955352D03*
%TD*%
D10*
%TO.C,SW19*%
X145466860Y-151085352D03*
D11*
X150546860Y-151085352D03*
D10*
X155626860Y-151085352D03*
D12*
X146736860Y-148545352D03*
X153086860Y-146005352D03*
%TD*%
D10*
%TO.C,SW47*%
X114510610Y-189185352D03*
D11*
X119590610Y-189185352D03*
D10*
X124670610Y-189185352D03*
D12*
X115780610Y-186645352D03*
X122130610Y-184105352D03*
%TD*%
D10*
%TO.C,SW55*%
X274054360Y-189185352D03*
D11*
X279134360Y-189185352D03*
D10*
X284214360Y-189185352D03*
D12*
X275324360Y-186645352D03*
X281674360Y-184105352D03*
%TD*%
D10*
%TO.C,SW48*%
X140704360Y-189185352D03*
D11*
X145784360Y-189185352D03*
D10*
X150864360Y-189185352D03*
D12*
X141974360Y-186645352D03*
X148324360Y-184105352D03*
%TD*%
D10*
%TO.C,SW40*%
X269291860Y-170135352D03*
D11*
X274371860Y-170135352D03*
D10*
X279451860Y-170135352D03*
D12*
X270561860Y-167595352D03*
X276911860Y-165055352D03*
%TD*%
D10*
%TO.C,SW64*%
X188329360Y-208235352D03*
D11*
X193409360Y-208235352D03*
D10*
X198489360Y-208235352D03*
D12*
X189599360Y-205695352D03*
X195949360Y-203155352D03*
%TD*%
D10*
%TO.C,SW49*%
X159754360Y-189185352D03*
D11*
X164834360Y-189185352D03*
D10*
X169914360Y-189185352D03*
D12*
X161024360Y-186645352D03*
X167374360Y-184105352D03*
%TD*%
D13*
%TO.C,SW72*%
X350526860Y-201251352D03*
D14*
X350526860Y-216461352D03*
D10*
X357398110Y-208235352D03*
D11*
X362478110Y-208235352D03*
D10*
X367558110Y-208235352D03*
D13*
X374402860Y-201251352D03*
D14*
X374402860Y-216461352D03*
D12*
X358668110Y-205695352D03*
X365018110Y-203155352D03*
%TD*%
D10*
%TO.C,SW11*%
X297866860Y-132035352D03*
D11*
X302946860Y-132035352D03*
D10*
X308026860Y-132035352D03*
D12*
X299136860Y-129495352D03*
X305486860Y-126955352D03*
%TD*%
D15*
%TO.C,D52*%
X231509360Y-192215352D03*
D16*
X231509360Y-188405352D03*
%TD*%
D15*
%TO.C,D35*%
X293421860Y-154115352D03*
D16*
X293421860Y-150305352D03*
%TD*%
D15*
%TO.C,D94*%
X336284360Y-211265352D03*
D16*
X336284360Y-207455352D03*
%TD*%
D15*
%TO.C,D61*%
X302946860Y-173165352D03*
D16*
X302946860Y-169355352D03*
%TD*%
D15*
%TO.C,D90*%
X298184360Y-211265352D03*
D16*
X298184360Y-207455352D03*
%TD*%
D15*
%TO.C,D29*%
X179121860Y-154115352D03*
D16*
X179121860Y-150305352D03*
%TD*%
D15*
%TO.C,D97*%
X393434360Y-230315352D03*
D16*
X393434360Y-226505352D03*
%TD*%
D15*
%TO.C,D47*%
X169596860Y-173165352D03*
D16*
X169596860Y-169355352D03*
%TD*%
D15*
%TO.C,D23*%
X369621860Y-135065352D03*
D16*
X369621860Y-131255352D03*
%TD*%
D15*
%TO.C,D51*%
X207696860Y-173165352D03*
D16*
X207696860Y-169355352D03*
%TD*%
D15*
%TO.C,D63*%
X321996860Y-173165352D03*
D16*
X321996860Y-169355352D03*
%TD*%
D15*
%TO.C,D43*%
X126734360Y-173165352D03*
D16*
X126734360Y-169355352D03*
%TD*%
D15*
%TO.C,D26*%
X121971860Y-154115352D03*
D16*
X121971860Y-150305352D03*
%TD*%
D15*
%TO.C,D22*%
X350571860Y-135065352D03*
D16*
X350571860Y-131255352D03*
%TD*%
D15*
%TO.C,D38*%
X350571860Y-154115352D03*
D16*
X350571860Y-150305352D03*
%TD*%
D15*
%TO.C,D105*%
X412484360Y-230315352D03*
D16*
X412484360Y-226505352D03*
%TD*%
D15*
%TO.C,D67*%
X360096860Y-173165352D03*
D16*
X360096860Y-169355352D03*
%TD*%
D15*
%TO.C,D30*%
X198171860Y-154115352D03*
D16*
X198171860Y-150305352D03*
%TD*%
D15*
%TO.C,D17*%
X255321860Y-135065352D03*
D16*
X255321860Y-131255352D03*
%TD*%
D15*
%TO.C,D15*%
X217221860Y-135065352D03*
D16*
X217221860Y-131255352D03*
%TD*%
D15*
%TO.C,D19*%
X293421860Y-135065352D03*
D16*
X293421860Y-131255352D03*
%TD*%
D15*
%TO.C,D10*%
X121971860Y-135065352D03*
D16*
X121971860Y-131255352D03*
%TD*%
D15*
%TO.C,D69*%
X383909384Y-173165352D03*
D16*
X383909384Y-169355352D03*
%TD*%
D15*
%TO.C,D34*%
X274371860Y-154115352D03*
D16*
X274371860Y-150305352D03*
%TD*%
D15*
%TO.C,D82*%
X221984360Y-211265352D03*
D16*
X221984360Y-207455352D03*
%TD*%
D15*
%TO.C,D33*%
X255321860Y-154115352D03*
D16*
X255321860Y-150305352D03*
%TD*%
D15*
%TO.C,D39*%
X379146860Y-154115352D03*
D16*
X379146860Y-150305352D03*
%TD*%
D15*
%TO.C,D50*%
X212459360Y-192215352D03*
D16*
X212459360Y-188405352D03*
%TD*%
D15*
%TO.C,D66*%
X376765610Y-192215352D03*
D16*
X376765610Y-188405352D03*
%TD*%
D15*
%TO.C,D45*%
X150546860Y-173165352D03*
D16*
X150546860Y-169355352D03*
%TD*%
D15*
%TO.C,D77*%
X148165610Y-230315352D03*
D16*
X148165610Y-226505352D03*
%TD*%
D15*
%TO.C,D79*%
X171978110Y-230315352D03*
D16*
X171978110Y-226505352D03*
%TD*%
D15*
%TO.C,D59*%
X283896860Y-173165352D03*
D16*
X283896860Y-169355352D03*
%TD*%
D15*
%TO.C,D53*%
X226746860Y-173165352D03*
D16*
X226746860Y-169355352D03*
%TD*%
D15*
%TO.C,D64*%
X345809360Y-192215352D03*
D16*
X345809360Y-188405352D03*
%TD*%
D15*
%TO.C,D80*%
X202934360Y-211265352D03*
D16*
X202934360Y-207455352D03*
%TD*%
D15*
%TO.C,D104*%
X412484360Y-211265352D03*
D16*
X412484360Y-207455352D03*
%TD*%
D15*
%TO.C,D37*%
X331521860Y-154115352D03*
D16*
X331521860Y-150305352D03*
%TD*%
D15*
%TO.C,D73*%
X412484360Y-173165352D03*
D16*
X412484360Y-169355352D03*
%TD*%
D15*
%TO.C,D78*%
X183884360Y-211265352D03*
D16*
X183884360Y-207455352D03*
%TD*%
D15*
%TO.C,D36*%
X312471860Y-154115352D03*
D16*
X312471860Y-150305352D03*
%TD*%
D15*
%TO.C,D92*%
X317234360Y-211265352D03*
D16*
X317234360Y-207455352D03*
%TD*%
D15*
%TO.C,D65*%
X341046860Y-173165352D03*
D16*
X341046860Y-169355352D03*
%TD*%
D15*
%TO.C,D13*%
X179121860Y-135065352D03*
D16*
X179121860Y-131255352D03*
%TD*%
D15*
%TO.C,D88*%
X279134360Y-211265352D03*
D16*
X279134360Y-207455352D03*
%TD*%
D15*
%TO.C,D24*%
X388671860Y-135065352D03*
D16*
X388671860Y-131255352D03*
%TD*%
D15*
%TO.C,D20*%
X312471860Y-135065352D03*
D16*
X312471860Y-131255352D03*
%TD*%
D15*
%TO.C,D32*%
X236271860Y-154115352D03*
D16*
X236271860Y-150305352D03*
%TD*%
D15*
%TO.C,D11*%
X141021860Y-135065352D03*
D16*
X141021860Y-131255352D03*
%TD*%
D15*
%TO.C,D60*%
X307709360Y-192215352D03*
D16*
X307709360Y-188405352D03*
%TD*%
D15*
%TO.C,D44*%
X155309360Y-192215352D03*
D16*
X155309360Y-188405352D03*
%TD*%
D15*
%TO.C,D72*%
X412484360Y-192215352D03*
D16*
X412484360Y-188405352D03*
%TD*%
D15*
%TO.C,D42*%
X129115610Y-192215352D03*
D16*
X129115610Y-188405352D03*
%TD*%
D15*
%TO.C,D14*%
X198171860Y-135065352D03*
D16*
X198171860Y-131255352D03*
%TD*%
D15*
%TO.C,D12*%
X160071860Y-135065352D03*
D16*
X160071860Y-131255352D03*
%TD*%
D15*
%TO.C,D41*%
X412484360Y-154115352D03*
D16*
X412484360Y-150305352D03*
%TD*%
D15*
%TO.C,D95*%
X374384360Y-230315352D03*
D16*
X374384360Y-226505352D03*
%TD*%
D15*
%TO.C,D49*%
X188646860Y-173165352D03*
D16*
X188646860Y-169355352D03*
%TD*%
D15*
%TO.C,D16*%
X236271860Y-135065352D03*
D16*
X236271860Y-131255352D03*
%TD*%
D17*
%TO.C,U1*%
X435819360Y-121365352D03*
X435819360Y-123905352D03*
D18*
X435819360Y-126445352D03*
D17*
X435819360Y-128985352D03*
X435819360Y-131525352D03*
X435819360Y-134065352D03*
X435819360Y-136605352D03*
D18*
X435819360Y-139145352D03*
D17*
X435819360Y-141685352D03*
X435819360Y-144225352D03*
X435819360Y-146765352D03*
X435819360Y-149305352D03*
D18*
X435819360Y-151845352D03*
D17*
X435819360Y-154385352D03*
X435819360Y-156925352D03*
X435819360Y-159465352D03*
X435819360Y-162005352D03*
D18*
X435819360Y-164545352D03*
D17*
X435819360Y-167085352D03*
X435819360Y-169625352D03*
X418039360Y-169625352D03*
X418039360Y-167085352D03*
D18*
X418039360Y-164545352D03*
D17*
X418039360Y-162005352D03*
X418039360Y-159465352D03*
X418039360Y-156925352D03*
X418039360Y-154385352D03*
D18*
X418039360Y-151845352D03*
D17*
X418039360Y-149305352D03*
X418039360Y-146765352D03*
X418039360Y-144225352D03*
X418039360Y-141685352D03*
D18*
X418039360Y-139145352D03*
D17*
X418039360Y-136605352D03*
X418039360Y-134065352D03*
X418039360Y-131525352D03*
X418039360Y-128985352D03*
D18*
X418039360Y-126445352D03*
D17*
X418039360Y-123905352D03*
X418039360Y-121365352D03*
X429469360Y-169395352D03*
D18*
X426929360Y-169395352D03*
D17*
X424389360Y-169395352D03*
%TD*%
D15*
%TO.C,D86*%
X260084360Y-211265352D03*
D16*
X260084360Y-207455352D03*
%TD*%
D15*
%TO.C,D93*%
X355334360Y-230315352D03*
D16*
X355334360Y-226505352D03*
%TD*%
D15*
%TO.C,D54*%
X250559360Y-192215352D03*
D16*
X250559360Y-188405352D03*
%TD*%
D15*
%TO.C,D27*%
X141021860Y-154115352D03*
D16*
X141021860Y-150305352D03*
%TD*%
D15*
%TO.C,D58*%
X288659360Y-192215352D03*
D16*
X288659360Y-188405352D03*
%TD*%
D15*
%TO.C,D18*%
X274371860Y-135065352D03*
D16*
X274371860Y-131255352D03*
%TD*%
D15*
%TO.C,D74*%
X133878110Y-211265352D03*
D16*
X133878110Y-207455352D03*
%TD*%
D15*
%TO.C,D31*%
X217221860Y-154115352D03*
D16*
X217221860Y-150305352D03*
%TD*%
D15*
%TO.C,D96*%
X372003110Y-211265352D03*
D16*
X372003110Y-207455352D03*
%TD*%
D15*
%TO.C,D85*%
X267228110Y-230315352D03*
D16*
X267228110Y-226505352D03*
%TD*%
D15*
%TO.C,D81*%
X195790610Y-230315352D03*
D16*
X195790610Y-226505352D03*
%TD*%
D15*
%TO.C,D28*%
X160071860Y-154115352D03*
D16*
X160071860Y-150305352D03*
%TD*%
D15*
%TO.C,D84*%
X241034360Y-211265352D03*
D16*
X241034360Y-207455352D03*
%TD*%
D15*
%TO.C,D75*%
X124353110Y-230315352D03*
D16*
X124353110Y-226505352D03*
%TD*%
D15*
%TO.C,D21*%
X331521860Y-135065352D03*
D16*
X331521860Y-131255352D03*
%TD*%
D15*
%TO.C,D56*%
X269609360Y-192215352D03*
D16*
X269609360Y-188405352D03*
%TD*%
D15*
%TO.C,D91*%
X336284360Y-230315352D03*
D16*
X336284360Y-226505352D03*
%TD*%
D15*
%TO.C,D55*%
X245796860Y-173165352D03*
D16*
X245796860Y-169355352D03*
%TD*%
D15*
%TO.C,D25*%
X412484360Y-135065352D03*
D16*
X412484360Y-131255352D03*
%TD*%
D15*
%TO.C,D57*%
X264846860Y-173165352D03*
D16*
X264846860Y-169355352D03*
%TD*%
D15*
%TO.C,D62*%
X326759360Y-192215352D03*
D16*
X326759360Y-188405352D03*
%TD*%
D15*
%TO.C,D48*%
X193409360Y-192215352D03*
D16*
X193409360Y-188405352D03*
%TD*%
D15*
%TO.C,D76*%
X164834360Y-211265352D03*
D16*
X164834360Y-207455352D03*
%TD*%
D15*
%TO.C,D46*%
X174359360Y-192215352D03*
D16*
X174359360Y-188405352D03*
%TD*%
M02*
