%TF.GenerationSoftware,KiCad,Pcbnew,9.0.7*%
%TF.CreationDate,2026-06-22T19:13:35+05:30*%
%TF.ProjectId,keyboard_kicad,6b657962-6f61-4726-945f-6b696361642e,rev?*%
%TF.SameCoordinates,Original*%
%TF.FileFunction,Other,ECO1*%
%FSLAX46Y46*%
G04 Gerber Fmt 4.6, Leading zero omitted, Abs format (unit mm)*
G04 Created by KiCad (PCBNEW 9.0.7) date 2026-06-22 19:13:35*
%MOMM*%
%LPD*%
G01*
G04 APERTURE LIST*
%ADD10C,0.100000*%
G04 APERTURE END LIST*
D10*
%TO.C,SW83*%
X395959360Y-220285352D02*
X395959360Y-234285352D01*
X395959360Y-234285352D02*
X409959360Y-234285352D01*
X409959360Y-220285352D02*
X395959360Y-220285352D01*
X409959360Y-234285352D02*
X409959360Y-220285352D01*
%TO.C,SW71*%
X319759360Y-201235352D02*
X319759360Y-215235352D01*
X319759360Y-215235352D02*
X333759360Y-215235352D01*
X333759360Y-201235352D02*
X319759360Y-201235352D01*
X333759360Y-215235352D02*
X333759360Y-201235352D01*
%TO.C,SW4*%
X162596860Y-125035352D02*
X162596860Y-139035352D01*
X162596860Y-139035352D02*
X176596860Y-139035352D01*
X176596860Y-125035352D02*
X162596860Y-125035352D01*
X176596860Y-139035352D02*
X176596860Y-125035352D01*
%TO.C,SW54*%
X253084360Y-182185352D02*
X253084360Y-196185352D01*
X253084360Y-196185352D02*
X267084360Y-196185352D01*
X267084360Y-182185352D02*
X253084360Y-182185352D01*
X267084360Y-196185352D02*
X267084360Y-182185352D01*
%TO.C,SW41*%
X286421860Y-163135352D02*
X286421860Y-177135352D01*
X286421860Y-177135352D02*
X300421860Y-177135352D01*
X300421860Y-163135352D02*
X286421860Y-163135352D01*
X300421860Y-177135352D02*
X300421860Y-163135352D01*
%TO.C,SW75*%
X131640610Y-220285352D02*
X131640610Y-234285352D01*
X131640610Y-234285352D02*
X145640610Y-234285352D01*
X145640610Y-220285352D02*
X131640610Y-220285352D01*
X145640610Y-234285352D02*
X145640610Y-220285352D01*
%TO.C,SW18*%
X124496860Y-144085352D02*
X124496860Y-158085352D01*
X124496860Y-158085352D02*
X138496860Y-158085352D01*
X138496860Y-144085352D02*
X124496860Y-144085352D01*
X138496860Y-158085352D02*
X138496860Y-144085352D01*
%TO.C,SW38*%
X229271860Y-163135352D02*
X229271860Y-177135352D01*
X229271860Y-177135352D02*
X243271860Y-177135352D01*
X243271860Y-163135352D02*
X229271860Y-163135352D01*
X243271860Y-177135352D02*
X243271860Y-163135352D01*
%TO.C,SW44*%
X343571860Y-163135352D02*
X343571860Y-177135352D01*
X343571860Y-177135352D02*
X357571860Y-177135352D01*
X357571860Y-163135352D02*
X343571860Y-163135352D01*
X357571860Y-177135352D02*
X357571860Y-163135352D01*
%TO.C,SW82*%
X376909360Y-220285352D02*
X376909360Y-234285352D01*
X376909360Y-234285352D02*
X390909360Y-234285352D01*
X390909360Y-220285352D02*
X376909360Y-220285352D01*
X390909360Y-234285352D02*
X390909360Y-220285352D01*
%TO.C,SW46*%
X395959360Y-163135352D02*
X395959360Y-177135352D01*
X395959360Y-177135352D02*
X409959360Y-177135352D01*
X409959360Y-163135352D02*
X395959360Y-163135352D01*
X409959360Y-177135352D02*
X409959360Y-163135352D01*
%TO.C,SW9*%
X257846860Y-125035352D02*
X257846860Y-139035352D01*
X257846860Y-139035352D02*
X271846860Y-139035352D01*
X271846860Y-125035352D02*
X257846860Y-125035352D01*
X271846860Y-139035352D02*
X271846860Y-125035352D01*
%TO.C,SW15*%
X372146860Y-125035352D02*
X372146860Y-139035352D01*
X372146860Y-139035352D02*
X386146860Y-139035352D01*
X386146860Y-125035352D02*
X372146860Y-125035352D01*
X386146860Y-139035352D02*
X386146860Y-125035352D01*
%TO.C,SW81*%
X357859360Y-220285352D02*
X357859360Y-234285352D01*
X357859360Y-234285352D02*
X371859360Y-234285352D01*
X371859360Y-220285352D02*
X357859360Y-220285352D01*
X371859360Y-234285352D02*
X371859360Y-220285352D01*
%TO.C,SW58*%
X329284360Y-182185352D02*
X329284360Y-196185352D01*
X329284360Y-196185352D02*
X343284360Y-196185352D01*
X343284360Y-182185352D02*
X329284360Y-182185352D01*
X343284360Y-196185352D02*
X343284360Y-182185352D01*
%TO.C,SW43*%
X324521860Y-163135352D02*
X324521860Y-177135352D01*
X324521860Y-177135352D02*
X338521860Y-177135352D01*
X338521860Y-163135352D02*
X324521860Y-163135352D01*
X338521860Y-177135352D02*
X338521860Y-163135352D01*
%TO.C,SW6*%
X200696860Y-125035352D02*
X200696860Y-139035352D01*
X200696860Y-139035352D02*
X214696860Y-139035352D01*
X214696860Y-125035352D02*
X200696860Y-125035352D01*
X214696860Y-139035352D02*
X214696860Y-125035352D01*
%TO.C,SW22*%
X200696860Y-144085352D02*
X200696860Y-158085352D01*
X200696860Y-158085352D02*
X214696860Y-158085352D01*
X214696860Y-144085352D02*
X200696860Y-144085352D01*
X214696860Y-158085352D02*
X214696860Y-144085352D01*
%TO.C,SW60*%
X395959360Y-182185352D02*
X395959360Y-196185352D01*
X395959360Y-196185352D02*
X409959360Y-196185352D01*
X409959360Y-182185352D02*
X395959360Y-182185352D01*
X409959360Y-196185352D02*
X409959360Y-182185352D01*
%TO.C,SW37*%
X210221860Y-163135352D02*
X210221860Y-177135352D01*
X210221860Y-177135352D02*
X224221860Y-177135352D01*
X224221860Y-163135352D02*
X210221860Y-163135352D01*
X224221860Y-177135352D02*
X224221860Y-163135352D01*
%TO.C,SW52*%
X214984360Y-182185352D02*
X214984360Y-196185352D01*
X214984360Y-196185352D02*
X228984360Y-196185352D01*
X228984360Y-182185352D02*
X214984360Y-182185352D01*
X228984360Y-196185352D02*
X228984360Y-182185352D01*
%TO.C,SW36*%
X191171860Y-163135352D02*
X191171860Y-177135352D01*
X191171860Y-177135352D02*
X205171860Y-177135352D01*
X205171860Y-163135352D02*
X191171860Y-163135352D01*
X205171860Y-177135352D02*
X205171860Y-163135352D01*
%TO.C,SW50*%
X176884360Y-182185352D02*
X176884360Y-196185352D01*
X176884360Y-196185352D02*
X190884360Y-196185352D01*
X190884360Y-182185352D02*
X176884360Y-182185352D01*
X190884360Y-196185352D02*
X190884360Y-182185352D01*
%TO.C,SW33*%
X134021860Y-163135352D02*
X134021860Y-177135352D01*
X134021860Y-177135352D02*
X148021860Y-177135352D01*
X148021860Y-163135352D02*
X134021860Y-163135352D01*
X148021860Y-177135352D02*
X148021860Y-163135352D01*
%TO.C,SW45*%
X367384360Y-163135352D02*
X367384360Y-177135352D01*
X367384360Y-177135352D02*
X381384360Y-177135352D01*
X381384360Y-163135352D02*
X367384360Y-163135352D01*
X381384360Y-177135352D02*
X381384360Y-163135352D01*
%TO.C,SW59*%
X351912610Y-183655352D02*
X351912610Y-195955352D01*
X351912610Y-195955352D02*
X358662610Y-195955352D01*
X358662610Y-183655352D02*
X351912610Y-183655352D01*
X358662610Y-195955352D02*
X358662610Y-183655352D01*
X360220610Y-182185352D02*
X360220610Y-196185352D01*
X360220610Y-196185352D02*
X374220610Y-196185352D01*
X374220610Y-182185352D02*
X360220610Y-182185352D01*
X374220610Y-196185352D02*
X374220610Y-182185352D01*
X375788610Y-183655352D02*
X375788610Y-195955352D01*
X375788610Y-195955352D02*
X382538610Y-195955352D01*
X382538610Y-183655352D02*
X375788610Y-183655352D01*
X382538610Y-195955352D02*
X382538610Y-183655352D01*
%TO.C,SW2*%
X124496860Y-125035352D02*
X124496860Y-139035352D01*
X124496860Y-139035352D02*
X138496860Y-139035352D01*
X138496860Y-125035352D02*
X124496860Y-125035352D01*
X138496860Y-139035352D02*
X138496860Y-125035352D01*
%TO.C,SW35*%
X172121860Y-163135352D02*
X172121860Y-177135352D01*
X172121860Y-177135352D02*
X186121860Y-177135352D01*
X186121860Y-163135352D02*
X172121860Y-163135352D01*
X186121860Y-177135352D02*
X186121860Y-163135352D01*
%TO.C,SW74*%
X107828110Y-220285352D02*
X107828110Y-234285352D01*
X107828110Y-234285352D02*
X121828110Y-234285352D01*
X121828110Y-220285352D02*
X107828110Y-220285352D01*
X121828110Y-234285352D02*
X121828110Y-220285352D01*
%TO.C,SW20*%
X162596860Y-144085352D02*
X162596860Y-158085352D01*
X162596860Y-158085352D02*
X176596860Y-158085352D01*
X176596860Y-144085352D02*
X162596860Y-144085352D01*
X176596860Y-158085352D02*
X176596860Y-144085352D01*
%TO.C,SW56*%
X291184360Y-182185352D02*
X291184360Y-196185352D01*
X291184360Y-196185352D02*
X305184360Y-196185352D01*
X305184360Y-182185352D02*
X291184360Y-182185352D01*
X305184360Y-196185352D02*
X305184360Y-182185352D01*
%TO.C,SW7*%
X219746860Y-125035352D02*
X219746860Y-139035352D01*
X219746860Y-139035352D02*
X233746860Y-139035352D01*
X233746860Y-125035352D02*
X219746860Y-125035352D01*
X233746860Y-139035352D02*
X233746860Y-125035352D01*
%TO.C,SW62*%
X148309360Y-201235352D02*
X148309360Y-215235352D01*
X148309360Y-215235352D02*
X162309360Y-215235352D01*
X162309360Y-201235352D02*
X148309360Y-201235352D01*
X162309360Y-215235352D02*
X162309360Y-201235352D01*
%TO.C,SW31*%
X395959360Y-144085352D02*
X395959360Y-158085352D01*
X395959360Y-158085352D02*
X409959360Y-158085352D01*
X409959360Y-144085352D02*
X395959360Y-144085352D01*
X409959360Y-158085352D02*
X409959360Y-144085352D01*
%TO.C,SW14*%
X353096860Y-125035352D02*
X353096860Y-139035352D01*
X353096860Y-139035352D02*
X367096860Y-139035352D01*
X367096860Y-125035352D02*
X353096860Y-125035352D01*
X367096860Y-139035352D02*
X367096860Y-125035352D01*
%TO.C,SW26*%
X276896860Y-144085352D02*
X276896860Y-158085352D01*
X276896860Y-158085352D02*
X290896860Y-158085352D01*
X290896860Y-144085352D02*
X276896860Y-144085352D01*
X290896860Y-158085352D02*
X290896860Y-144085352D01*
%TO.C,SW66*%
X224509360Y-201235352D02*
X224509360Y-215235352D01*
X224509360Y-215235352D02*
X238509360Y-215235352D01*
X238509360Y-201235352D02*
X224509360Y-201235352D01*
X238509360Y-215235352D02*
X238509360Y-201235352D01*
%TO.C,SW10*%
X276896860Y-125035352D02*
X276896860Y-139035352D01*
X276896860Y-139035352D02*
X290896860Y-139035352D01*
X290896860Y-125035352D02*
X276896860Y-125035352D01*
X290896860Y-139035352D02*
X290896860Y-125035352D01*
%TO.C,SW77*%
X179265610Y-220285352D02*
X179265610Y-234285352D01*
X179265610Y-234285352D02*
X193265610Y-234285352D01*
X193265610Y-220285352D02*
X179265610Y-220285352D01*
X193265610Y-234285352D02*
X193265610Y-220285352D01*
%TO.C,SW1*%
X105446860Y-125035352D02*
X105446860Y-139035352D01*
X105446860Y-139035352D02*
X119446860Y-139035352D01*
X119446860Y-125035352D02*
X105446860Y-125035352D01*
X119446860Y-139035352D02*
X119446860Y-125035352D01*
%TO.C,SW39*%
X248321860Y-163135352D02*
X248321860Y-177135352D01*
X248321860Y-177135352D02*
X262321860Y-177135352D01*
X262321860Y-163135352D02*
X248321860Y-163135352D01*
X262321860Y-177135352D02*
X262321860Y-163135352D01*
%TO.C,SW80*%
X338809360Y-220285352D02*
X338809360Y-234285352D01*
X338809360Y-234285352D02*
X352809360Y-234285352D01*
X352809360Y-220285352D02*
X338809360Y-220285352D01*
X352809360Y-234285352D02*
X352809360Y-220285352D01*
%TO.C,SW32*%
X110209360Y-163135352D02*
X110209360Y-177135352D01*
X110209360Y-177135352D02*
X124209360Y-177135352D01*
X124209360Y-163135352D02*
X110209360Y-163135352D01*
X124209360Y-177135352D02*
X124209360Y-163135352D01*
%TO.C,SW70*%
X300709360Y-201235352D02*
X300709360Y-215235352D01*
X300709360Y-215235352D02*
X314709360Y-215235352D01*
X314709360Y-201235352D02*
X300709360Y-201235352D01*
X314709360Y-215235352D02*
X314709360Y-201235352D01*
%TO.C,SW8*%
X238796860Y-125035352D02*
X238796860Y-139035352D01*
X238796860Y-139035352D02*
X252796860Y-139035352D01*
X252796860Y-125035352D02*
X238796860Y-125035352D01*
X252796860Y-139035352D02*
X252796860Y-125035352D01*
%TO.C,SW53*%
X234034360Y-182185352D02*
X234034360Y-196185352D01*
X234034360Y-196185352D02*
X248034360Y-196185352D01*
X248034360Y-182185352D02*
X234034360Y-182185352D01*
X248034360Y-196185352D02*
X248034360Y-182185352D01*
%TO.C,SW73*%
X395959360Y-201235352D02*
X395959360Y-215235352D01*
X395959360Y-215235352D02*
X409959360Y-215235352D01*
X409959360Y-201235352D02*
X395959360Y-201235352D01*
X409959360Y-215235352D02*
X409959360Y-201235352D01*
%TO.C,SW5*%
X181646860Y-125035352D02*
X181646860Y-139035352D01*
X181646860Y-139035352D02*
X195646860Y-139035352D01*
X195646860Y-125035352D02*
X181646860Y-125035352D01*
X195646860Y-139035352D02*
X195646860Y-125035352D01*
%TO.C,SW27*%
X295946860Y-144085352D02*
X295946860Y-158085352D01*
X295946860Y-158085352D02*
X309946860Y-158085352D01*
X309946860Y-144085352D02*
X295946860Y-144085352D01*
X309946860Y-158085352D02*
X309946860Y-144085352D01*
%TO.C,SW42*%
X305471860Y-163135352D02*
X305471860Y-177135352D01*
X305471860Y-177135352D02*
X319471860Y-177135352D01*
X319471860Y-163135352D02*
X305471860Y-163135352D01*
X319471860Y-177135352D02*
X319471860Y-163135352D01*
%TO.C,SW68*%
X262609360Y-201235352D02*
X262609360Y-215235352D01*
X262609360Y-215235352D02*
X276609360Y-215235352D01*
X276609360Y-201235352D02*
X262609360Y-201235352D01*
X276609360Y-215235352D02*
X276609360Y-201235352D01*
%TO.C,SW51*%
X195934360Y-182185352D02*
X195934360Y-196185352D01*
X195934360Y-196185352D02*
X209934360Y-196185352D01*
X209934360Y-182185352D02*
X195934360Y-182185352D01*
X209934360Y-196185352D02*
X209934360Y-182185352D01*
%TO.C,SW3*%
X143546860Y-125035352D02*
X143546860Y-139035352D01*
X143546860Y-139035352D02*
X157546860Y-139035352D01*
X157546860Y-125035352D02*
X143546860Y-125035352D01*
X157546860Y-139035352D02*
X157546860Y-125035352D01*
%TO.C,SW57*%
X310234360Y-182185352D02*
X310234360Y-196185352D01*
X310234360Y-196185352D02*
X324234360Y-196185352D01*
X324234360Y-182185352D02*
X310234360Y-182185352D01*
X324234360Y-196185352D02*
X324234360Y-182185352D01*
%TO.C,SW25*%
X257846860Y-144085352D02*
X257846860Y-158085352D01*
X257846860Y-158085352D02*
X271846860Y-158085352D01*
X271846860Y-144085352D02*
X257846860Y-144085352D01*
X271846860Y-158085352D02*
X271846860Y-144085352D01*
%TO.C,SW30*%
X354308860Y-145555352D02*
X354308860Y-157855352D01*
X354308860Y-157855352D02*
X361058860Y-157855352D01*
X361058860Y-145555352D02*
X354308860Y-145555352D01*
X361058860Y-157855352D02*
X361058860Y-145555352D01*
X362621860Y-144085352D02*
X362621860Y-158085352D01*
X362621860Y-158085352D02*
X376621860Y-158085352D01*
X376621860Y-144085352D02*
X362621860Y-144085352D01*
X376621860Y-158085352D02*
X376621860Y-144085352D01*
X378184860Y-145555352D02*
X378184860Y-157855352D01*
X378184860Y-157855352D02*
X384934860Y-157855352D01*
X384934860Y-145555352D02*
X378184860Y-145555352D01*
X384934860Y-157855352D02*
X384934860Y-145555352D01*
%TO.C,SW23*%
X219746860Y-144085352D02*
X219746860Y-158085352D01*
X219746860Y-158085352D02*
X233746860Y-158085352D01*
X233746860Y-144085352D02*
X219746860Y-144085352D01*
X233746860Y-158085352D02*
X233746860Y-144085352D01*
%TO.C,SW79*%
X319759360Y-220285352D02*
X319759360Y-234285352D01*
X319759360Y-234285352D02*
X333759360Y-234285352D01*
X333759360Y-220285352D02*
X319759360Y-220285352D01*
X333759360Y-234285352D02*
X333759360Y-220285352D01*
%TO.C,SW29*%
X334046860Y-144085352D02*
X334046860Y-158085352D01*
X334046860Y-158085352D02*
X348046860Y-158085352D01*
X348046860Y-144085352D02*
X334046860Y-144085352D01*
X348046860Y-158085352D02*
X348046860Y-144085352D01*
%TO.C,SW17*%
X105446860Y-144085352D02*
X105446860Y-158085352D01*
X105446860Y-158085352D02*
X119446860Y-158085352D01*
X119446860Y-144085352D02*
X105446860Y-144085352D01*
X119446860Y-158085352D02*
X119446860Y-144085352D01*
%TO.C,SW13*%
X334046860Y-125035352D02*
X334046860Y-139035352D01*
X334046860Y-139035352D02*
X348046860Y-139035352D01*
X348046860Y-125035352D02*
X334046860Y-125035352D01*
X348046860Y-139035352D02*
X348046860Y-125035352D01*
%TO.C,SW24*%
X238796860Y-144085352D02*
X238796860Y-158085352D01*
X238796860Y-158085352D02*
X252796860Y-158085352D01*
X252796860Y-144085352D02*
X238796860Y-144085352D01*
X252796860Y-158085352D02*
X252796860Y-144085352D01*
%TO.C,SW12*%
X314996860Y-125035352D02*
X314996860Y-139035352D01*
X314996860Y-139035352D02*
X328996860Y-139035352D01*
X328996860Y-125035352D02*
X314996860Y-125035352D01*
X328996860Y-139035352D02*
X328996860Y-125035352D01*
%TO.C,SW28*%
X314996860Y-144085352D02*
X314996860Y-158085352D01*
X314996860Y-158085352D02*
X328996860Y-158085352D01*
X328996860Y-144085352D02*
X314996860Y-144085352D01*
X328996860Y-158085352D02*
X328996860Y-144085352D01*
%TO.C,SW65*%
X205459360Y-201235352D02*
X205459360Y-215235352D01*
X205459360Y-215235352D02*
X219459360Y-215235352D01*
X219459360Y-201235352D02*
X205459360Y-201235352D01*
X219459360Y-215235352D02*
X219459360Y-201235352D01*
%TO.C,SW61*%
X109025110Y-202705352D02*
X109025110Y-215005352D01*
X109025110Y-215005352D02*
X115775110Y-215005352D01*
X115775110Y-202705352D02*
X109025110Y-202705352D01*
X115775110Y-215005352D02*
X115775110Y-202705352D01*
X117333110Y-201235352D02*
X117333110Y-215235352D01*
X117333110Y-215235352D02*
X131333110Y-215235352D01*
X131333110Y-201235352D02*
X117333110Y-201235352D01*
X131333110Y-215235352D02*
X131333110Y-201235352D01*
X132901110Y-202705352D02*
X132901110Y-215005352D01*
X132901110Y-215005352D02*
X139651110Y-215005352D01*
X139651110Y-202705352D02*
X132901110Y-202705352D01*
X139651110Y-215005352D02*
X139651110Y-202705352D01*
%TO.C,SW21*%
X181646860Y-144085352D02*
X181646860Y-158085352D01*
X181646860Y-158085352D02*
X195646860Y-158085352D01*
X195646860Y-144085352D02*
X181646860Y-144085352D01*
X195646860Y-158085352D02*
X195646860Y-144085352D01*
%TO.C,SW69*%
X281659360Y-201235352D02*
X281659360Y-215235352D01*
X281659360Y-215235352D02*
X295659360Y-215235352D01*
X295659360Y-201235352D02*
X281659360Y-201235352D01*
X295659360Y-215235352D02*
X295659360Y-201235352D01*
%TO.C,SW76*%
X155453110Y-220285352D02*
X155453110Y-234285352D01*
X155453110Y-234285352D02*
X169453110Y-234285352D01*
X169453110Y-220285352D02*
X155453110Y-220285352D01*
X169453110Y-234285352D02*
X169453110Y-220285352D01*
%TO.C,SW63*%
X167359360Y-201235352D02*
X167359360Y-215235352D01*
X167359360Y-215235352D02*
X181359360Y-215235352D01*
X181359360Y-201235352D02*
X167359360Y-201235352D01*
X181359360Y-215235352D02*
X181359360Y-201235352D01*
%TO.C,SW67*%
X243559360Y-201235352D02*
X243559360Y-215235352D01*
X243559360Y-215235352D02*
X257559360Y-215235352D01*
X257559360Y-201235352D02*
X243559360Y-201235352D01*
X257559360Y-215235352D02*
X257559360Y-201235352D01*
%TO.C,SW34*%
X153071860Y-163135352D02*
X153071860Y-177135352D01*
X153071860Y-177135352D02*
X167071860Y-177135352D01*
X167071860Y-163135352D02*
X153071860Y-163135352D01*
X167071860Y-177135352D02*
X167071860Y-163135352D01*
%TO.C,SW78*%
X204298110Y-221735352D02*
X204298110Y-234035352D01*
X204298110Y-234035352D02*
X211048110Y-234035352D01*
X211048110Y-221735352D02*
X204298110Y-221735352D01*
X211048110Y-234035352D02*
X211048110Y-221735352D01*
X250703110Y-220285352D02*
X250703110Y-234285352D01*
X250703110Y-234285352D02*
X264703110Y-234285352D01*
X264703110Y-220285352D02*
X250703110Y-220285352D01*
X264703110Y-234285352D02*
X264703110Y-220285352D01*
X304298110Y-221735352D02*
X304298110Y-234035352D01*
X304298110Y-234035352D02*
X311048110Y-234035352D01*
X311048110Y-221735352D02*
X304298110Y-221735352D01*
X311048110Y-234035352D02*
X311048110Y-221735352D01*
%TO.C,SW16*%
X395959360Y-125035352D02*
X395959360Y-139035352D01*
X395959360Y-139035352D02*
X409959360Y-139035352D01*
X409959360Y-125035352D02*
X395959360Y-125035352D01*
X409959360Y-139035352D02*
X409959360Y-125035352D01*
%TO.C,SW19*%
X143546860Y-144085352D02*
X143546860Y-158085352D01*
X143546860Y-158085352D02*
X157546860Y-158085352D01*
X157546860Y-144085352D02*
X143546860Y-144085352D01*
X157546860Y-158085352D02*
X157546860Y-144085352D01*
%TO.C,SW47*%
X112590610Y-182185352D02*
X112590610Y-196185352D01*
X112590610Y-196185352D02*
X126590610Y-196185352D01*
X126590610Y-182185352D02*
X112590610Y-182185352D01*
X126590610Y-196185352D02*
X126590610Y-182185352D01*
%TO.C,SW55*%
X272134360Y-182185352D02*
X272134360Y-196185352D01*
X272134360Y-196185352D02*
X286134360Y-196185352D01*
X286134360Y-182185352D02*
X272134360Y-182185352D01*
X286134360Y-196185352D02*
X286134360Y-182185352D01*
%TO.C,SW48*%
X138784360Y-182185352D02*
X138784360Y-196185352D01*
X138784360Y-196185352D02*
X152784360Y-196185352D01*
X152784360Y-182185352D02*
X138784360Y-182185352D01*
X152784360Y-196185352D02*
X152784360Y-182185352D01*
%TO.C,SW40*%
X267371860Y-163135352D02*
X267371860Y-177135352D01*
X267371860Y-177135352D02*
X281371860Y-177135352D01*
X281371860Y-163135352D02*
X267371860Y-163135352D01*
X281371860Y-177135352D02*
X281371860Y-163135352D01*
%TO.C,SW64*%
X186409360Y-201235352D02*
X186409360Y-215235352D01*
X186409360Y-215235352D02*
X200409360Y-215235352D01*
X200409360Y-201235352D02*
X186409360Y-201235352D01*
X200409360Y-215235352D02*
X200409360Y-201235352D01*
%TO.C,SW49*%
X157834360Y-182185352D02*
X157834360Y-196185352D01*
X157834360Y-196185352D02*
X171834360Y-196185352D01*
X171834360Y-182185352D02*
X157834360Y-182185352D01*
X171834360Y-196185352D02*
X171834360Y-182185352D01*
%TO.C,SW72*%
X347151860Y-202706352D02*
X347151860Y-215006352D01*
X347151860Y-215006352D02*
X353901860Y-215006352D01*
X353901860Y-202706352D02*
X347151860Y-202706352D01*
X353901860Y-215006352D02*
X353901860Y-202706352D01*
X355478110Y-201235352D02*
X355478110Y-215235352D01*
X355478110Y-215235352D02*
X369478110Y-215235352D01*
X369478110Y-201235352D02*
X355478110Y-201235352D01*
X369478110Y-215235352D02*
X369478110Y-201235352D01*
X371027860Y-202706352D02*
X371027860Y-215006352D01*
X371027860Y-215006352D02*
X377777860Y-215006352D01*
X377777860Y-202706352D02*
X371027860Y-202706352D01*
X377777860Y-215006352D02*
X377777860Y-202706352D01*
%TO.C,SW11*%
X295946860Y-125035352D02*
X295946860Y-139035352D01*
X295946860Y-139035352D02*
X309946860Y-139035352D01*
X309946860Y-125035352D02*
X295946860Y-125035352D01*
X309946860Y-139035352D02*
X309946860Y-125035352D01*
%TD*%
M02*
